<svg xmlns="http://www.w3.org/2000/svg" xmlns:xlink="http://www.w3.org/1999/xlink" width="240" height="54" viewBox="0 0 240 54">
  <defs>
    <filter id="Rectangle_272" x="0" y="0" width="240" height="54" filterUnits="userSpaceOnUse">
      <feOffset dy="3" input="SourceAlpha"/>
      <feGaussianBlur stdDeviation="3" result="blur"/>
      <feFlood flood-opacity="0.161"/>
      <feComposite operator="in" in2="blur"/>
      <feComposite in="SourceGraphic"/>
    </filter>
  </defs>
  <g id="Group_479" data-name="Group 479" transform="translate(-512 -11)">
    <g transform="matrix(1, 0, 0, 1, 512, 11)" filter="url(#Rectangle_272)">
      <rect id="Rectangle_272-2" data-name="Rectangle 272" width="222" height="36" rx="11" transform="translate(9 6)" fill="#fff"/>
    </g>
    <text id="Search" transform="translate(555 41)" fill="#9e9e9e" font-size="14" font-family="Roboto-Regular, Roboto"><tspan x="0" y="0">Search</tspan></text>
    <path id="Icon_ionic-ios-search" data-name="Icon ionic-ios-search" d="M19.168,18.264,15.04,14.1a5.883,5.883,0,1,0-.893.9l4.1,4.139a.635.635,0,0,0,.9.023A.639.639,0,0,0,19.168,18.264Zm-8.75-3.212a4.645,4.645,0,1,1,3.285-1.36A4.616,4.616,0,0,1,10.417,15.052Z" transform="matrix(0.951, 0.309, -0.309, 0.951, 532.348, 20.336)" fill="#9e9e9e"/>
  </g>
</svg>
